<?xml version="1.0" standalone="no"?>
<!DOCTYPE svg PUBLIC "-//W3C//DTD SVG 20010904//EN"
 "http://www.w3.org/TR/2001/REC-SVG-20010904/DTD/svg10.dtd">
<svg version="1.0" xmlns="http://www.w3.org/2000/svg"
 width="700.000000pt" height="700.000000pt" viewBox="0 0 700.000000 700.000000"
 preserveAspectRatio="xMidYMid meet">
<metadata>
Created by potrace 1.11, written by Peter Selinger 2001-2013
</metadata>
<g transform="translate(0.000000,700.000000) scale(0.100000,-0.100000)"
fill="#000000" stroke="none">
<path d="M3335 6993 c-1155 -57 -2181 -660 -2808 -1651 -88 -138 -243 -452
-302 -612 -304 -819 -294 -1703 28 -2530 54 -140 196 -419 282 -555 534 -847
1386 -1418 2374 -1591 234 -41 264 -44 496 -51 236 -6 411 4 627 37 1442 220
2609 1331 2897 2758 55 273 65 380 65 702 0 230 -4 324 -18 425 -32 235 -112
561 -187 766 -406 1111 -1348 1949 -2490 2213 -319 73 -655 105 -964 89z
m-662 -2225 c151 -370 398 -973 548 -1340 150 -368 276 -668 279 -668 3 0 117
276 253 613 137 336 382 939 545 1340 l296 727 513 0 513 0 0 -1905 0 -1905
-395 0 -395 0 0 1127 c0 676 -4 1123 -9 1117 -5 -5 -209 -498 -452 -1096
l-443 -1088 -422 0 c-325 0 -424 3 -431 12 -5 7 -207 497 -448 1088 -241 591
-442 1079 -447 1085 -4 5 -8 -485 -8 -1088 l0 -1097 -395 0 -395 0 0 1875 0
1875 509 0 508 0 276 -672z"/>
</g>
</svg>
